# xmcd
#
# Track frame offsets:
#	150
#	12825
#	26918
#	39976
#	53154
#	65762
#	78625
#	91923
#	105341
#	119201
#	132604
#	144379
#
# Disc length: 2094 seconds
#
# Revision: 1
# Processed by: cddbd v1.5.2PL0 Copyright (c) Steve Scherf et al.
# Submitted via: audiograbber 1.83.01
#
DISCID=a8082c0c
DTITLE=Hank Williams - Beyond The Sunset
DYEAR=1963
DGENRE=Country
TTITLE0=Pictures From Life's Other Side
TTITLE1=Men With Broken Hearts
TTITLE2=Help Me Understand
TTITLE3=Too Many Parties And Too Many Pals
TTITLE4=Why Don't You Make Up Your Mind
TTITLE5=I've Been Down That Road Before
TTITLE6=Be Careful Of Stones You Throw
TTITLE7=I Dreamed About Mama Last Night
TTITLE8=The Funeral
TTITLE9=Beyond The Sunset
TTITLE10=Just Waintin'
TTITLE11=Everything's Okay
EXTD=This is made from one of my LP's that I made into a CD
EXTT0=
EXTT1=
EXTT2=
EXTT3=
EXTT4=
EXTT5=
EXTT6=
EXTT7=
EXTT8=
EXTT9=
EXTT10=
EXTT11=
PLAYORDER=
